<svg aid="a" xmlns="http://www.w3.org/2000/svg" viewBox="0 0 1822 1103">
<defs>
<linearGradient id="b" x1="71" y1="718" x2="1753" y2="718" gradientUnits="userSpaceOnUse">
<stop offset="0" stopColor="#30302e"/>
<stop offset=".004" stopColor="#3d3e3b"/>
<stop offset=".012" stopColor="#62625f"/>
<stop offset=".023" stopColor="#9d9e98"/>
<stop offset=".03" stopColor="#c5c6bf"/>
<stop offset=".202" stopColor="#bcbdb6"/>
<stop offset=".482" stopColor="#a4a49f"/>
<stop offset=".5" stopColor="#a3a39e"/>
<stop offset=".744" stopColor="#b6b7b0"/>
<stop offset=".97" stopColor="#c4c5be"/>
<stop offset=".974" stopColor="#bfc0b9"/>
<stop offset=".979" stopColor="#b1b2ac"/>
<stop offset=".985" stopColor="#9a9b95"/>
<stop offset=".99" stopColor="#7a7b76"/>
<stop offset=".996" stopColor="#52524f"/>
<stop offset="1" stopColor="#30302e"/>
</linearGradient>
<linearGradient id="c" x1="172" y1="482.5" x2="1654" y2="482.5" gradientUnits="userSpaceOnUse">
<stop offset=".013" stopColor="#565c66"/>
<stop offset="1" stopColor="#686471"/>
</linearGradient>
<linearGradient id="d" x1="270.386" y1="466.241" x2="1551.614" y2="466.241" gradientUnits="userSpaceOnUse">
<stop offset="0" stopColor="#30302e"/>
<stop offset=".011" stopColor="#222220" stopOpacity=".708"/>
<stop offset=".03" stopColor="#000" stopOpacity="0"/>
<stop offset=".5" stopColor="#000" stopOpacity="0"/>
<stop offset=".895" stopColor="#000" stopOpacity="0"/>
<stop offset=".96" stopColor="#000" stopOpacity="0"/>
<stop offset=".971" stopColor="#060605" stopOpacity=".127"/>
<stop offset=".985" stopColor="#171716" stopOpacity=".486"/>
<stop offset="1" stopColor="#30302e"/>
</linearGradient>
</defs>
<path d="m1708.271,1221H115.729c-24.703,0-44.729-20.026-44.729-44.729V259.729c0-24.703,20.026-44.729,44.729-44.729h1592.541c24.703,0,44.729,20.026,44.729,44.729v916.541c0,24.703-20.026,44.729-44.729,44.729Zm-156.656-931.856H270.386v354.192h1281.229v-354.192Z" fill="url(#b)" strokeWidth="0"/>
<path d="m1543.035,714H189.257c-9.531,0-17.257-7.726-17.257-17.257v-428.487c0-9.531,7.726-17.257,17.257-17.257h1447.487c9.531,0,17.257,7.726,17.257,17.257v334.778c0,61.284-49.681,110.965-110.965,110.965Zm8.58-424.856H270.386v354.192h1281.229v-354.192Z" fill="url(#c)" strokeWidth="0"/>
<rect x="270.386" y="289.144" width="1281.229" height="354.192" fill="url(#d)" strokeWidth="0"/>
</svg>
