<?xml version="1.0" encoding="UTF-8"?><svg id="a" xmlns="http://www.w3.org/2000/svg" xmlns:xlink="http://www.w3.org/1999/xlink" viewBox="0 0 1822 1103"><defs><linearGradient id="b" x1="71" y1="718" x2="1753" y2="718" gradientUnits="userSpaceOnUse"><stop offset="0" stop-color="#30302e"/><stop offset=".004" stop-color="#3d3e3b"/><stop offset=".012" stop-color="#62625f"/><stop offset=".023" stop-color="#9d9e98"/><stop offset=".03" stop-color="#c5c6bf"/><stop offset=".202" stop-color="#bcbdb6"/><stop offset=".482" stop-color="#a4a49f"/><stop offset=".5" stop-color="#a3a39e"/><stop offset=".744" stop-color="#b6b7b0"/><stop offset=".97" stop-color="#c4c5be"/><stop offset=".974" stop-color="#bfc0b9"/><stop offset=".979" stop-color="#b1b2ac"/><stop offset=".985" stop-color="#9a9b95"/><stop offset=".99" stop-color="#7a7b76"/><stop offset=".996" stop-color="#52524f"/><stop offset="1" stop-color="#30302e"/></linearGradient><linearGradient id="c" x1="172" y1="482.5" x2="1654" y2="482.5" gradientUnits="userSpaceOnUse"><stop offset=".013" stop-color="#565c66"/><stop offset="1" stop-color="#686471"/></linearGradient><linearGradient id="d" x1="270.386" y1="466.241" x2="1551.614" y2="466.241" gradientUnits="userSpaceOnUse"><stop offset="0" stop-color="#30302e"/><stop offset=".011" stop-color="#222220" stop-opacity=".708"/><stop offset=".03" stop-color="#000" stop-opacity="0"/><stop offset=".5" stop-color="#000" stop-opacity="0"/><stop offset=".895" stop-color="#000" stop-opacity="0"/><stop offset=".96" stop-color="#000" stop-opacity="0"/><stop offset=".971" stop-color="#060605" stop-opacity=".127"/><stop offset=".985" stop-color="#171716" stop-opacity=".486"/><stop offset="1" stop-color="#30302e"/></linearGradient></defs><path d="m1708.271,1221H115.729c-24.703,0-44.729-20.026-44.729-44.729V259.729c0-24.703,20.026-44.729,44.729-44.729h1592.541c24.703,0,44.729,20.026,44.729,44.729v916.541c0,24.703-20.026,44.729-44.729,44.729Zm-156.656-931.856H270.386v354.192h1281.229v-354.192Z" fill="url(#b)" stroke-width="0"/><path d="m1543.035,714H189.257c-9.531,0-17.257-7.726-17.257-17.257v-428.487c0-9.531,7.726-17.257,17.257-17.257h1447.487c9.531,0,17.257,7.726,17.257,17.257v334.778c0,61.284-49.681,110.965-110.965,110.965Zm8.58-424.856H270.386v354.192h1281.229v-354.192Z" fill="url(#c)" stroke-width="0"/><rect x="270.386" y="289.144" width="1281.229" height="354.192" fill="url(#d)" stroke-width="0"/></svg>